<svg xmlns="http://www.w3.org/2000/svg" viewBox="0 0 64 64" fill="none" role="img" aria-label="SilentTransfer">
  <defs>
    <linearGradient id="st-bg" x1="8" y1="4" x2="56" y2="60" gradientUnits="userSpaceOnUse">
      <stop stop-color="#16a34a"/>
      <stop offset="1" stop-color="#14532d"/>
    </linearGradient>
  </defs>
  <!-- Rounded mark -->
  <rect x="2" y="2" width="60" height="60" rx="16" fill="url(#st-bg)"/>
  <!-- Soft inner glow ring -->
  <rect x="6" y="6" width="52" height="52" rx="13" stroke="rgba(255,255,255,0.14)" stroke-width="1"/>
  <!-- Abstract "S" path — silent / path -->
  <path
    d="M40.5 22.5c0-4.2-3.6-7.5-8.5-7.5-5.2 0-9 2.8-10.2 7.1-.3 1.1.5 2.1 1.6 2.1h2.1c.8 0 1.5-.5 1.7-1.2.7-2.1 2.4-3.5 4.8-3.5 2.4 0 4.1 1.4 4.1 3.2 0 1.6-.8 2.5-3.4 3.6l-5.2 2.2c-4.1 1.7-6.8 4.3-6.8 8.9 0 5 4 8.7 9.6 8.7 5.4 0 9.4-2.9 10.8-7.4.3-1.1-.5-2.2-1.6-2.2h-2.2c-.8 0-1.5.5-1.8 1.2-.8 2.3-2.7 3.9-5.2 3.9-2.7 0-4.6-1.6-4.6-3.7 0-1.7.9-2.7 3.7-3.9l5.1-2.1c4.5-1.9 7-4.6 7-9.5z"
    fill="#fff"
  />
  <!-- Quiet signal dots -->
  <circle cx="18" cy="48" r="1.6" fill="rgba(255,255,255,0.55)"/>
  <circle cx="23" cy="48" r="1.6" fill="rgba(255,255,255,0.35)"/>
  <circle cx="28" cy="48" r="1.6" fill="rgba(255,255,255,0.2)"/>
</svg>
